# xmcd CD database file
#
# Track frame offsets:
#	150
#	11842
#	26724
#	40852
#	55677
#	68722
#	83157
#	96137
#	112972
#	126132
#	139332
#
# Disc length: 2067 seconds
#
# Revision: 3
# Processed by: cddbd v1.5.2PL0 Copyright (c) Steve Scherf et al.
# Submitted via: CDex 1.51
#
DISCID=8e08110b
DTITLE=Sweethearts Of The Rodeo - Sisters
DYEAR=1992
DGENRE=Country
TTITLE0=Why Should I Stay Blue
TTITLE1=Hard-headed Man
TTITLE2=I Don't Stay Down For Long
TTITLE3=Man Of My Dreams
TTITLE4=A Woman Can Tell (Every Time)
TTITLE5=Have I Done Enough
TTITLE6=Devil And Your Deep Blue Eyes
TTITLE7=(Our Love Is Like) Silver And Gold
TTITLE8=Be Good To Me
TTITLE9=Watch Me Run
TTITLE10=Sisters (Best Of Friends)
EXTD=YEAR: 1992
EXTT0=
EXTT1=
EXTT2=
EXTT3=
EXTT4=
EXTT5=
EXTT6=
EXTT7=
EXTT8=
EXTT9=
EXTT10=
PLAYORDER=
